<?xml version="1.0" encoding="iso-8859-1"?>
<!-- Generator: Adobe Illustrator 19.0.0, SVG Export Plug-In . SVG Version: 6.00 Build 0)  -->
<svg version="1.1" id="Capa_1" xmlns="http://www.w3.org/2000/svg" xmlns:xlink="http://www.w3.org/1999/xlink" x="0px" y="0px"
	 viewBox="0 0 496 496" style="enable-background:new 0 0 496 496;" xml:space="preserve">
<path style="fill:#FFA64D;" d="M248,0c-70.696,0-128,57.304-128,128c0,24.048,6.752,46.464,18.288,65.688
	C168.928,197.656,206.888,200,248,200s79.072-2.344,109.712-6.312C369.248,174.464,376,152.048,376,128C376,57.304,318.696,0,248,0z
	"/>
<g>
	<path style="fill:#333333;" d="M440,192.552V168c0-8.928-6.984-21.696-64.368-31.128c-0.384,5.384-1.152,10.656-2.192,15.832
		c34.48,5.704,47.224,12.368,50.144,15.336c-6.568,7.488-50.856,19.048-126.056,22.752c9.2-7.272,16.92-16.552,22.344-27.6
		l-14.36-7.048C294.648,178.264,272.616,192,248,192c-35.288,0-64-28.712-64-64s28.712-64,64-64V48c-44.112,0-80,35.888-80,80
		c0,25.464,12,48.136,30.6,62.8c-75.272-3.696-119.6-15.272-126.176-22.76c2.92-2.968,15.656-9.632,50.144-15.336
		c-1.04-5.176-1.808-10.44-2.192-15.832C62.984,146.304,56,159.072,56,168v24.552C24.48,196.512,0,223.424,0,256
		c0,33.128,25.312,60.456,57.608,63.68C66.2,388.072,111.368,447.856,176,474.024V496h16v-33.016l-5.216-1.936
		C118.128,435.568,72,369.24,72,296V186.104C115.2,207.256,232.032,208,248,208s132.8-0.744,176-21.896V296
		c0,73.24-46.128,139.568-114.784,165.048L304,462.984V496h16v-21.976c64.632-26.168,109.8-85.952,118.392-154.344
		C470.688,316.456,496,289.128,496,256C496,223.424,471.52,196.512,440,192.552z M16,256c0-23.736,17.336-43.448,40-47.28V296
		c0,2.456,0.184,4.88,0.28,7.32C33.48,299.608,16,279.832,16,256z M439.72,303.32c0.096-2.44,0.28-4.864,0.28-7.32v-87.28
		c22.664,3.824,40,23.536,40,47.28C480,279.832,462.52,299.608,439.72,303.32z"/>
	<path style="fill:#333333;" d="M192,256c0-17.648-14.352-32-32-32s-32,14.352-32,32s14.352,32,32,32S192,273.648,192,256z M144,256
		c0-8.824,7.176-16,16-16s16,7.176,16,16s-7.176,16-16,16S144,264.824,144,256z"/>
	<path style="fill:#333333;" d="M368,256c0-17.648-14.352-32-32-32s-32,14.352-32,32s14.352,32,32,32S368,273.648,368,256z M320,256
		c0-8.824,7.176-16,16-16s16,7.176,16,16s-7.176,16-16,16S320,264.824,320,256z"/>
	<path style="fill:#333333;" d="M104,288c0,79.4,64.6,144,144,144s144-64.6,144-144h-16c0,70.576-57.424,128-128,128
		s-128-57.424-128-128H104z"/>
	<path style="fill:#333333;" d="M258.592,97.944C255.264,96.76,251.736,96,248,96c-17.648,0-32,14.352-32,32s14.352,32,32,32
		s32-14.352,32-32c0-8.104-3.12-15.424-8.096-21.064l29.504-36.88C304.736,71.24,308.264,72,312,72c7.976,0,15.192-3.04,20.8-7.88
		l15.728,15.728C345.72,84.608,344,90.08,344,96c0,17.648,14.352,32,32,32s32-14.352,32-32c0-5.392-1.464-10.4-3.832-14.864
		l37.184-26.56C447.144,60.392,455.16,64,464,64c17.648,0,32-14.352,32-32S481.648,0,464,0s-32,14.352-32,32
		c0,3.016,0.552,5.88,1.336,8.648L393.368,69.2C388.36,65.936,382.408,64,376,64c-5.92,0-11.392,1.72-16.152,4.536l-17.824-17.824
		C343.224,47.344,344,43.776,344,40c0-17.648-14.352-32-32-32s-32,14.352-32,32c0,8.104,3.12,15.424,8.096,21.064L258.592,97.944z
		 M464,16c8.824,0,16,7.176,16,16s-7.176,16-16,16s-16-7.176-16-16S455.176,16,464,16z M248,144c-8.824,0-16-7.176-16-16
		s7.176-16,16-16s16,7.176,16,16S256.824,144,248,144z M392,96c0,8.824-7.176,16-16,16s-16-7.176-16-16s7.176-16,16-16
		S392,87.176,392,96z M312,24c8.824,0,16,7.176,16,16s-7.176,16-16,16s-16-7.176-16-16S303.176,24,312,24z"/>
	<path style="fill:#333333;" d="M310.344,142.52l15.576,3.64c1.384-5.896,2.08-12,2.08-18.16h-16
		C312,132.928,311.448,137.824,310.344,142.52z"/>
</g>
<g>
</g>
<g>
</g>
<g>
</g>
<g>
</g>
<g>
</g>
<g>
</g>
<g>
</g>
<g>
</g>
<g>
</g>
<g>
</g>
<g>
</g>
<g>
</g>
<g>
</g>
<g>
</g>
<g>
</g>
</svg>
