<?xml version="1.0" encoding="iso-8859-1"?>
<!-- Generator: Adobe Illustrator 19.0.0, SVG Export Plug-In . SVG Version: 6.00 Build 0)  -->
<svg version="1.1" id="Capa_1" xmlns="http://www.w3.org/2000/svg" xmlns:xlink="http://www.w3.org/1999/xlink" x="0px" y="0px"
	 viewBox="0 0 496 496" style="enable-background:new 0 0 496 496;" xml:space="preserve">
<g>
	<circle style="fill:#FFA64D;" cx="400" cy="96" r="48"/>
	<circle style="fill:#FFA64D;" cx="400" cy="248" r="48"/>
	<path style="fill:#FFA64D;" d="M208,272H64V64h144V272z"/>
</g>
<g>
	<path style="fill:#333333;" d="M480,0H16C7.176,0,0,7.176,0,16v16c0,8.824,7.176,16,16,16h16v272h48.776
		c-5.416,9.368-8.568,20.208-8.568,31.792v16.424c0,13.944,4.552,26.824,12.176,37.328C57.832,416.552,40,442.568,40,472v24h192v-24
		c0-29.424-17.832-55.448-44.384-66.456c7.624-10.512,12.176-23.384,12.176-37.328v-16.424c0-11.584-3.152-22.416-8.568-31.792
		h113.56c-5.416,9.368-8.568,20.208-8.568,31.792v16.424c0,13.944,4.552,26.824,12.176,37.328C281.832,416.552,264,442.568,264,472
		v24h192v-24c0-29.424-17.832-55.448-44.384-66.456c7.624-10.512,12.176-23.384,12.176-37.328v-16.424
		c0-11.584-3.152-22.416-8.568-31.792H464V48h16c8.824,0,16-7.176,16-16V16C496,7.176,488.824,0,480,0z M136,304
		c26.352,0,47.792,21.44,47.792,47.792v16.424C183.792,394.56,162.352,416,136,416s-47.792-21.44-47.792-47.792v-16.424
		C88.208,325.44,109.648,304,136,304z M216,472v8H56v-8c0-25.056,16.64-46.888,40.576-53.744C107.44,426.832,121.12,432,136,432
		s28.56-5.16,39.424-13.736C199.36,425.112,216,446.936,216,472z M360,304c26.352,0,47.792,21.44,47.792,47.792v16.424
		C407.792,394.56,386.352,416,360,416s-47.792-21.44-47.792-47.792v-16.424C312.208,325.44,333.648,304,360,304z M440,472v8H280v-8
		c0-25.056,16.64-46.888,40.576-53.744C331.44,426.832,345.12,432,360,432s28.56-5.16,39.424-13.736
		C423.36,425.112,440,446.936,440,472z M448,304h-45.888c-11.248-9.92-25.968-16-42.112-16s-30.864,6.08-42.112,16H178.112
		c-11.248-9.92-25.968-16-42.112-16s-30.864,6.08-42.112,16H48V48h400V304z M16,32V16h464l0.008,16H16z"/>
	<rect x="96" y="96" style="fill:#333333;" width="16" height="16"/>
	<rect x="128" y="96" style="fill:#333333;" width="48" height="16"/>
	<rect x="96" y="128" style="fill:#333333;" width="80" height="16"/>
	<rect x="160" y="224" style="fill:#333333;" width="16" height="16"/>
	<rect x="96" y="224" style="fill:#333333;" width="48" height="16"/>
	<rect x="96" y="192" style="fill:#333333;" width="80" height="16"/>
	<rect x="96" y="160" style="fill:#333333;" width="80" height="16"/>
	<path style="fill:#333333;" d="M296,248c21.616,0,40.984-9.616,54.192-24.752l19.872,13.76C368.8,240.448,368,244.12,368,248
		c0,17.648,14.352,32,32,32s32-14.352,32-32s-14.352-32-32-32c-7.976,0-15.184,3.032-20.792,7.872l-19.84-13.736
		C364.872,199.976,368,188.344,368,176c0-13.632-3.88-26.344-10.488-37.224l22.928-17.632C385.864,125.376,392.6,128,400,128
		c17.648,0,32-14.352,32-32s-14.352-32-32-32s-32,14.352-32,32c0,4.456,0.92,8.688,2.576,12.544l-22.8,17.536
		C334.672,112.496,316.32,104,296,104c-39.704,0-72,32.304-72,72S256.296,248,296,248z M400,232c8.824,0,16,7.176,16,16
		s-7.176,16-16,16s-16-7.176-16-16S391.176,232,400,232z M400,80c8.824,0,16,7.176,16,16s-7.176,16-16,16s-16-7.176-16-16
		S391.176,80,400,80z M240.64,184h51.608l33.032,39.64c-8.528,5.264-18.536,8.36-29.28,8.36C267.848,232,244.544,211.096,240.64,184
		z M352,176c0,14.376-5.496,27.464-14.432,37.384L304,173.104V120.64C331.088,124.544,352,147.848,352,176z M288,120.64V168h-47.36
		C244.168,143.528,263.528,124.168,288,120.64z"/>
</g>
<g>
</g>
<g>
</g>
<g>
</g>
<g>
</g>
<g>
</g>
<g>
</g>
<g>
</g>
<g>
</g>
<g>
</g>
<g>
</g>
<g>
</g>
<g>
</g>
<g>
</g>
<g>
</g>
<g>
</g>
</svg>
